<svg width="1920" height="686" viewBox="0 0 1920 686" fill="none" xmlns="http://www.w3.org/2000/svg">
<rect width="1920" height="684" fill="#D8F3DC"/>
<mask id="mask0_26_15" style="mask-type:alpha" maskUnits="userSpaceOnUse" x="0" y="0" width="1920" height="686">
<rect width="1920" height="686" fill="#B7E4C7"/>
</mask>
<g mask="url(#mask0_26_15)">
<path fill-rule="evenodd" clip-rule="evenodd" d="M419.469 606.757C450.232 668.05 387.296 730.345 333.691 777.321C286.013 819.103 225.403 851.51 168.502 826.688C98.6459 796.215 37.2005 730.186 57.0096 656.624C75.1007 589.442 164.469 590.042 234.834 580.361C303.554 570.906 389.507 547.061 419.469 606.757Z" fill="#B7E4C7"/>
<path fill-rule="evenodd" clip-rule="evenodd" d="M1935.2 610.288C1995.03 637.707 2087.25 622.821 2114.61 682.686C2139.83 737.875 2066.7 790.269 2043.01 846.181C2020.62 898.993 2011.74 954.988 1979.19 1002.23C1935.24 1066.01 1899.39 1169.28 1822 1166.95C1741.4 1164.51 1709.1 1057.74 1661.6 992.635C1631.97 952.021 1631.62 896.468 1597.64 859.413C1546.11 803.206 1445.23 797.235 1417.35 726.243C1389.04 654.134 1389.08 538.831 1457.28 501.95C1538.38 458.09 1630.15 549.038 1721.41 561.807C1760 567.206 1797.76 546.289 1835.76 554.906C1873.53 563.472 1899.99 594.155 1935.2 610.288Z" fill="#B7E4C7"/>
<path fill-rule="evenodd" clip-rule="evenodd" d="M1699.95 -138.53C1730.69 -139.346 1760.55 -144.117 1790.61 -137.696C1829.3 -129.434 1872.68 -124.951 1899.52 -95.9115C1927.32 -65.8485 1930.28 -21.3245 1935.71 19.2458C1941.76 64.4408 1970.69 128.084 1932.93 153.679C1885.84 185.599 1820.23 115.991 1766.29 134.088C1728.3 146.836 1737.65 218.243 1699.95 231.845C1665.53 244.266 1627.15 217.55 1598.67 194.57C1571.95 173.001 1569.18 133.527 1546.34 107.881C1515.56 73.3164 1454.29 64.0047 1442.54 19.2458C1431.36 -23.3473 1458.76 -71.5893 1491.53 -101.019C1522.98 -129.258 1570.42 -125.469 1612.03 -132.957C1641.43 -138.249 1670.09 -137.738 1699.95 -138.53Z" fill="#B7E4C7"/>
<path fill-rule="evenodd" clip-rule="evenodd" d="M-226.813 112.141C-188.943 107.474 -157.476 91.5512 -119.743 86.3862C-59.9044 78.1955 6.24945 21.3539 58.1381 73.1367C109.339 124.233 48.5438 208.522 72.1484 277.886C99.8469 359.279 213.069 418.652 202.118 496.231C191.804 569.295 92.2939 553.937 30.4833 573.04C-19.8568 588.598 -68.4114 605.391 -124.252 597.099C-184.434 588.162 -273.959 591.102 -298.425 524.196C-328.437 442.125 -203.826 396.256 -228.138 313.008C-253.881 224.862 -416.211 209.721 -415.638 122.85C-415.151 48.9702 -290.309 119.966 -226.813 112.141Z" fill="#B7E4C7"/>
</g>
</svg>
